<?xml version="1.0" encoding="UTF-8"?>
<svg width="86px" height="25px" viewBox="0 0 86 25" version="1.1" xmlns="http://www.w3.org/2000/svg" xmlns:xlink="http://www.w3.org/1999/xlink">
    <!-- Generator: Sketch 47.1 (45422) - http://www.bohemiancoding.com/sketch -->
    <title>Logo</title>
    <desc>Created with Sketch.</desc>
    <defs></defs>
    <g id="Page-1" stroke="none" stroke-width="1" fill="none" fill-rule="evenodd">
        <g id="Place" transform="translate(-34.000000, -30.000000)">
            <g id="header" transform="translate(33.000000, 25.000000)">
                <g id="Logo">
                    <text id="Text" font-family="ChildishReverie, Childish Reverie" font-size="30" font-weight="normal" fill="#353434">
                        <tspan x="0" y="29">mz</tspan>
                        <tspan x="26.88" y="29" letter-spacing="1.2">a</tspan>
                        <tspan x="40.11" y="29" letter-spacing="1.7">n</tspan>
                        <tspan x="54.44" y="29">g</tspan>
                    </text>
                    <circle id="Oval" fill="#E4104A" cx="77" cy="18" r="10"></circle>
                    <g id="Mark" transform="translate(72.000000, 12.000000)" fill-rule="nonzero" fill="#FFFFFF">
                        <path d="M5.8874539,5.24986427 C6.42099926,5.86054872 7.2213173,6.1723192 8.27555151,6.1723192 C8.60982089,6.1723192 8.87659357,5.9023324 8.87659357,5.57127714 C8.87659357,5.23700776 8.60660676,4.97023508 8.27555151,4.97023508 C7.59415623,4.97023508 7.09596628,4.79988626 6.80348057,4.46883101 C6.37278733,3.98028345 6.45956881,3.25067624 6.45956881,3.24746211 C6.50135248,2.9549764 6.3245754,2.67534721 6.04173208,2.58856573 C5.76210288,2.50178426 5.45676066,2.63034941 5.32498138,2.89390796 L1.10804456,11.3277816 C0.960194644,11.6266956 1.07911741,11.986678 1.37803137,12.137742 C1.46481285,12.1795257 1.55480845,12.2020246 1.64801818,12.2020246 C1.86979306,12.2020246 2.08192555,12.0798877 2.1879918,11.8677552 L4.12611139,7.99151603 L5.31855313,8.92361335 L5.75567463,11.1156491 C5.81352894,11.4017066 6.06423098,11.6009825 6.3470743,11.6009825 C6.38564385,11.6009825 6.42742752,11.5977684 6.46599706,11.588126 C6.79062406,11.5238434 7.00275655,11.2056447 6.93847398,10.8778036 L6.45635468,8.46720708 C6.42742752,8.32578542 6.35028843,8.2004344 6.23779393,8.11043879 L4.67572739,6.89228403 L5.65603664,4.93166554 C5.72031921,5.03773178 5.7974583,5.14701216 5.8874539,5.24986427 Z" id="Shape"></path>
                        <path d="M1.48835496,6.85189815 C1.69841834,6.97106295 1.92015191,7.02843859 2.13799541,7.02843859 C2.67482405,7.02843859 3.18831232,6.69301175 3.44505645,6.1148418 L5.03998212,2.49576273 C5.40175794,1.67926318 5.11000325,0.681809683 4.3864516,0.275766665 C3.66289995,-0.134689863 2.78763587,0.200736977 2.42975011,1.01723652 L0.834824437,4.6363156 C0.473048615,5.44840163 0.76480331,6.44144162 1.48835496,6.85189815 Z" id="Shape" fill-opacity="0.679093071" transform="translate(2.937403, 3.564418) rotate(2.000000) translate(-2.937403, -3.564418) "></path>
                        <path d="M0.379856544,9.221189 C0.466079038,9.24642909 1.36826526,9.85123427 1.74655967,9.17346267 C1.89653736,8.90475499 3.53134177,6.51702165 2.36072835,7.25258195 C1.19011493,7.98814225 0.586332062,6.28063227 0.289378384,6.6302335 C-0.0505447562,8.24037351 -0.0203853697,9.10402534 0.379856544,9.221189 Z" id="Shape-Copy" fill-opacity="0.679093071" transform="translate(1.417744, 8.038064) rotate(2.000000) translate(-1.417744, -8.038064) "></path>
                        <circle id="Oval" cx="7.07025325" cy="1.35112619" r="1.20529825"></circle>
                    </g>
                </g>
            </g>
        </g>
    </g>
</svg>